<svg xmlns="http://www.w3.org/2000/svg" xmlns:xlink="http://www.w3.org/1999/xlink" viewBox="0 0 60 60"><defs><style>.cls-1{fill:url(#black_gray);}.cls-2{fill:url(#black_gray-2);}.cls-3{fill:url(#black_gray-3);}</style><linearGradient id="black_gray" x1="60" y1="30" x2="0" y2="30" gradientUnits="userSpaceOnUse"><stop offset="0" stop-color="#c6c6c6" stop-opacity="0.9"/><stop offset="1"/></linearGradient><linearGradient id="black_gray-2" x1="53" y1="11" x2="45" y2="11" xlink:href="#black_gray"/><linearGradient id="black_gray-3" x1="53" y1="38" x2="45" y2="38" xlink:href="#black_gray"/></defs><title>access server</title><g id="Layer_2" data-name="Layer 2"><g id="icons"><path class="cls-1" d="M60,23V0H0V23H29v4H0V50H29v4.18A3,3,0,0,0,27.18,56H0v2H27.18a3,3,0,0,0,5.63,0H60V56H32.81A3,3,0,0,0,31,54.18V50H60V27H31V23ZM58,48H2V29H58ZM2,2H58V21H2Z"/><rect class="cls-2" x="45" y="10" width="8" height="2"/><rect class="cls-3" x="45" y="37" width="8" height="2"/></g></g></svg>