<svg xmlns="http://www.w3.org/2000/svg" xmlns:xlink="http://www.w3.org/1999/xlink" viewBox="0 0 60 60"><defs><style>.cls-1{fill:url(#black_gray);}.cls-2{fill:url(#black_gray-2);}.cls-3{fill:url(#black_gray-3);}.cls-4{fill:url(#black_gray-4);}.cls-5{fill:url(#black_gray-5);}</style><linearGradient id="black_gray" x1="38" y1="8" x2="22" y2="8" gradientUnits="userSpaceOnUse"><stop offset="0" stop-color="#c6c6c6" stop-opacity="0.9"/><stop offset="1"/></linearGradient><linearGradient id="black_gray-2" y1="52" y2="52" xlink:href="#black_gray"/><linearGradient id="black_gray-3" x1="60" y1="52" x2="44" y2="52" xlink:href="#black_gray"/><linearGradient id="black_gray-4" x1="16" y1="52" x2="0" y2="52" xlink:href="#black_gray"/><linearGradient id="black_gray-5" x1="53" y1="30" x2="7" y2="30" xlink:href="#black_gray"/></defs><title>Int dots Icon</title><g id="Layer_2" data-name="Layer 2"><g id="icons"><path class="cls-1" d="M38,8a8,8,0,1,0-8,8A8,8,0,0,0,38,8Zm-8,6a6,6,0,1,1,6-6A6,6,0,0,1,30,14Z"/><path class="cls-2" d="M22,52a8,8,0,1,0,8-8A8,8,0,0,0,22,52Zm8-6a6,6,0,1,1-6,6A6,6,0,0,1,30,46Z"/><path class="cls-3" d="M52,44a8,8,0,1,0,8,8A8,8,0,0,0,52,44Zm0,14a6,6,0,1,1,6-6A6,6,0,0,1,52,58Z"/><path class="cls-4" d="M0,52a8,8,0,1,0,8-8A8,8,0,0,0,0,52Zm8-6a6,6,0,1,1-6,6A6,6,0,0,1,8,46Z"/><polygon class="cls-5" points="53 29 31 29 31 16 30 16 29 16 29 29 7 29 7 44 8 44 9 44 9 31 29 31 29 44 30 44 31 44 31 31 51 31 51 44 52 44 53 44 53 29"/></g></g></svg>