<svg xmlns="http://www.w3.org/2000/svg" xmlns:xlink="http://www.w3.org/1999/xlink" viewBox="0 0 60.03 51.03"><defs><style>.cls-1{fill:url(#black_gray);}.cls-2{fill:url(#black_gray-2);}.cls-3{fill:url(#black_gray-3);}</style><linearGradient id="black_gray" x1="60.03" y1="14.01" x2="0" y2="14.01" gradientUnits="userSpaceOnUse"><stop offset="0" stop-color="#c6c6c6" stop-opacity="0.9"/><stop offset="1"/></linearGradient><linearGradient id="black_gray-2" x1="60.03" y1="29.79" y2="29.79" xlink:href="#black_gray"/><linearGradient id="black_gray-3" x1="60.03" y1="41.52" y2="41.52" xlink:href="#black_gray"/></defs><title>Overlapping</title><g id="Layer_2" data-name="Layer 2"><g id="icons"><path class="cls-1" d="M60,14,30,0,0,14,30,28ZM30,2.21,55.3,14,30,25.82,4.73,14Z"/><polygon class="cls-2" points="48 21.63 55.3 25.03 30 36.85 4.73 25.05 12.03 21.64 9.67 20.53 0 25.05 30 39.05 60.03 25.03 50.36 20.52 48 21.63"/><polygon class="cls-3" points="46.95 33.11 55.3 37.01 30 48.82 4.73 37.02 13.07 33.12 10.71 32.02 0 37.02 30 51.03 60.03 37.01 49.32 32.01 46.95 33.11"/></g></g></svg>